<svg width="1920" height="1080" viewBox="0 0 1920 1080" fill="none" xmlns="http://www.w3.org/2000/svg">
<rect width="1920" height="565" fill="#0390AB"/>
<g opacity="0.5">
<g clip-path="url(#clip0_987_4368)">
<path d="M132.167 903.795V884.827H86.8138V903.795H45.8899V1080H132.344V903.795H132.167ZM128.092 1075.75H50.1417V908.049H91.0657V889.082H127.915V908.049H128.092V1075.75Z" fill="#B7EFEA"/>
<path d="M73.587 921.344H57.8765V925.599H73.587V921.344Z" fill="#B7EFEA"/>
<path d="M96.9723 921.344H81.2617V925.599H96.9723V921.344Z" fill="#B7EFEA"/>
<path d="M120.357 921.344H104.647V925.599H120.357V921.344Z" fill="#B7EFEA"/>
<path d="M73.587 939.78H57.8765V944.035H73.587V939.78Z" fill="#B7EFEA"/>
<path d="M96.9723 939.78H81.2617V944.035H96.9723V939.78Z" fill="#B7EFEA"/>
<path d="M120.357 939.78H104.647V944.035H120.357V939.78Z" fill="#B7EFEA"/>
<path d="M73.587 958.216H57.8765V962.471H73.587V958.216Z" fill="#B7EFEA"/>
<path d="M96.9723 958.216H81.2617V962.471H96.9723V958.216Z" fill="#B7EFEA"/>
<path d="M120.357 958.216H104.647V962.471H120.357V958.216Z" fill="#B7EFEA"/>
<path d="M73.587 976.652H57.8765V980.907H73.587V976.652Z" fill="#B7EFEA"/>
<path d="M96.9723 976.652H81.2617V980.907H96.9723V976.652Z" fill="#B7EFEA"/>
<path d="M120.357 976.652H104.647V980.907H120.357V976.652Z" fill="#B7EFEA"/>
<path d="M73.587 995.088H57.8765V999.343H73.587V995.088Z" fill="#B7EFEA"/>
<path d="M96.9723 995.088H81.2617V999.343H96.9723V995.088Z" fill="#B7EFEA"/>
<path d="M120.357 995.088H104.647V999.343H120.357V995.088Z" fill="#B7EFEA"/>
<path d="M73.587 1013.52H57.8765V1017.78H73.587V1013.52Z" fill="#B7EFEA"/>
<path d="M96.9723 1013.52H81.2617V1017.78H96.9723V1013.52Z" fill="#B7EFEA"/>
<path d="M120.357 1013.52H104.647V1017.78H120.357V1013.52Z" fill="#B7EFEA"/>
<path d="M73.587 1031.96H57.8765V1036.21H73.587V1031.96Z" fill="#B7EFEA"/>
<path d="M96.9723 1031.96H81.2617V1036.21H96.9723V1031.96Z" fill="#B7EFEA"/>
<path d="M120.357 1031.96H104.647V1036.21H120.357V1031.96Z" fill="#B7EFEA"/>
<path d="M73.587 1050.4H57.8765V1054.65H73.587V1050.4Z" fill="#B7EFEA"/>
<path d="M96.9723 1050.4H81.2617V1054.65H96.9723V1050.4Z" fill="#B7EFEA"/>
<path d="M120.357 1050.4H104.647V1054.65H120.357V1050.4Z" fill="#B7EFEA"/>
<path d="M199.948 901.313V944.921H179.752V988.529H153.178V1032.14H128.021V1080H268.686V901.313H199.948ZM264.434 1075.75H132.273V1036.39H157.43V992.784H184.004V949.176H204.2V905.568H264.434V1075.75Z" fill="#B7EFEA"/>
<path d="M250.598 1047.38H146.446V1051.64H250.598V1047.38Z" fill="#B7EFEA"/>
<path d="M250.598 1063.34H146.446V1067.59H250.598V1063.34Z" fill="#B7EFEA"/>
<path d="M250.612 1003.77H170.518V1008.03H250.612V1003.77Z" fill="#B7EFEA"/>
<path d="M250.612 1019.73H170.518V1023.98H250.612V1019.73Z" fill="#B7EFEA"/>
<path d="M256.636 960.166H191.423V964.421H256.636V960.166Z" fill="#B7EFEA"/>
<path d="M256.636 976.12H191.423V980.375H256.636V976.12Z" fill="#B7EFEA"/>
<path d="M260.888 919.04H207.013V923.294H260.888V919.04Z" fill="#B7EFEA"/>
<path d="M260.888 934.994H207.013V939.249H260.888V934.994Z" fill="#B7EFEA"/>
<path d="M317.76 748.727V701.067H313.508V748.727L264.435 800.844V1080H366.833V800.844L317.76 748.727ZM362.581 1075.75H268.686V802.532L315.634 752.673L362.581 802.532V1075.75Z" fill="#B7EFEA"/>
<path d="M286.757 809.708V1057.66H344.511V809.708L315.634 779.04L286.757 809.708ZM340.259 1053.41H291.009V811.395L315.634 785.241L340.259 811.395V1053.41Z" fill="#B7EFEA"/>
<path d="M462.145 1075.75H383.486V1080H462.145V1075.75Z" fill="#B7EFEA"/>
<path d="M379.234 944.921H374.982V1062.27H379.234V944.921Z" fill="#B7EFEA"/>
<path d="M391.99 944.921H387.738V1062.27H391.99V944.921Z" fill="#B7EFEA"/>
<path d="M464.271 929.322V808.07H381.36V929.322H362.581V1080H404.036V1064.4H441.594V1080H483.05V929.322H464.271ZM385.612 812.324H460.019V929.322H449.389V822.96H395.887V929.322H385.612V812.324ZM429.193 827.215V1060.15H416.328V827.215H429.193ZM399.785 1075.75H366.833V933.576H399.785V1075.75ZM400.139 929.322V827.215H412.076V1060.15H404.036V929.322H400.139ZM433.445 1060.15V827.215H445.138V929.322H441.594V1060.15H433.445ZM478.798 1075.75H445.846V933.576H478.798V1075.75Z" fill="#B7EFEA"/>
<path d="M458.247 944.921H453.996V1062.27H458.247V944.921Z" fill="#B7EFEA"/>
<path d="M471.003 944.921H466.751V1062.27H471.003V944.921Z" fill="#B7EFEA"/>
<path d="M516.93 970.448H490.491V974.702H516.93V970.448Z" fill="#B7EFEA"/>
<path d="M503.601 983.867H490.491V988.122H503.601V983.867Z" fill="#B7EFEA"/>
<path d="M516.93 997.29H490.491V1001.54H516.93V997.29Z" fill="#B7EFEA"/>
<path d="M503.601 1010.71H490.491V1014.97H503.601V1010.71Z" fill="#B7EFEA"/>
<path d="M516.93 1024.14H490.491V1028.39H516.93V1024.14Z" fill="#B7EFEA"/>
<path d="M503.601 1037.48H490.491V1041.73H503.601V1037.48Z" fill="#B7EFEA"/>
<path d="M534.426 1050.98H490.491V1055.23H534.426V1050.98Z" fill="#B7EFEA"/>
<path d="M503.601 1064.38H490.491V1068.63H503.601V1064.38Z" fill="#B7EFEA"/>
<path d="M516.926 983.867H508.274V988.122H516.926V983.867Z" fill="#B7EFEA"/>
<path d="M516.926 1010.81H508.274V1015.07H516.926V1010.81Z" fill="#B7EFEA"/>
<path d="M516.926 1037.48H508.274V1041.73H516.926V1037.48Z" fill="#B7EFEA"/>
<path d="M534.426 1064.38H508.274V1068.63H534.426V1064.38Z" fill="#B7EFEA"/>
<path d="M528.403 1037.46V958.394H478.798V1080H551.079V1037.46H528.403ZM546.828 1075.75H483.05V962.648H524.151V1041.71H546.828V1075.75Z" fill="#B7EFEA"/>
<path d="M569.858 889.259H556.394V1070.78H569.858V889.259ZM565.606 1066.53H560.646V893.513H565.606V1066.53Z" fill="#B7EFEA"/>
<path d="M587.929 839.535V868.696H561V880.041H546.827V1080H621.235V858.233L587.929 839.538V839.535ZM575.173 1075.75H551.079V884.295H575.173V1075.75ZM579.425 1075.75V880.041H565.252V872.95H587.929V1075.75H579.425ZM616.983 1075.75H592.216V868.696H592.18V846.803L616.983 860.726V1075.75V1075.75Z" fill="#B7EFEA"/>
<path d="M610.959 864.253L598.204 857.092V1069.72H610.959V864.253ZM606.708 1065.46H602.456V864.356L606.708 866.742V1065.46V1065.46Z" fill="#B7EFEA"/>
<path d="M670.131 872.241V997.393H655.604V986.757H616.983V1080H733.2V872.241H670.131ZM640.722 991.011V1075.75H631.871V991.011H640.722ZM621.235 991.011H627.62V1075.75H621.235V991.011ZM651.352 1075.75H644.974V991.011H651.352V1075.75ZM728.948 1075.75H655.604V1001.65H674.383V876.496H728.948V1075.75Z" fill="#B7EFEA"/>
<path d="M720.444 884.65H682.886V888.904H720.444V884.65Z" fill="#B7EFEA"/>
<path d="M720.444 900.604H682.886V904.859H720.444V900.604Z" fill="#B7EFEA"/>
<path d="M720.444 916.558H682.886V920.813H720.444V916.558Z" fill="#B7EFEA"/>
<path d="M720.444 932.512H682.886V936.767H720.444V932.512Z" fill="#B7EFEA"/>
<path d="M720.444 948.467H682.886V952.721H720.444V948.467Z" fill="#B7EFEA"/>
<path d="M720.444 964.421H682.886V968.675H720.444V964.421Z" fill="#B7EFEA"/>
<path d="M720.444 980.375H682.886V984.629H720.444V980.375Z" fill="#B7EFEA"/>
<path d="M720.444 996.329H682.886V1000.58H720.444V996.329Z" fill="#B7EFEA"/>
<path d="M720.444 1012.28H682.886V1016.54H720.444V1012.28Z" fill="#B7EFEA"/>
<path d="M720.444 1028.24H682.886V1032.49H720.444V1028.24Z" fill="#B7EFEA"/>
<path d="M720.444 1044.19H682.886V1048.45H720.444V1044.19Z" fill="#B7EFEA"/>
<path d="M720.444 1060.15H682.886V1064.4H720.444V1060.15Z" fill="#B7EFEA"/>
<path d="M674.152 1012.28H662.913V1016.54H674.152V1012.28Z" fill="#B7EFEA"/>
<path d="M674.152 1028.24H662.913V1032.49H674.152V1028.24Z" fill="#B7EFEA"/>
<path d="M674.152 1044.19H662.913V1048.45H674.152V1044.19Z" fill="#B7EFEA"/>
<path d="M674.152 1060.15H662.913V1064.4H674.152V1060.15Z" fill="#B7EFEA"/>
<path d="M752.333 884.65H736.629V888.904H752.333V884.65Z" fill="#B7EFEA"/>
<path d="M752.333 900.604H736.629V904.858H752.333V900.604Z" fill="#B7EFEA"/>
<path d="M752.333 916.558H736.629V920.813H752.333V916.558Z" fill="#B7EFEA"/>
<path d="M752.333 932.512H736.629V936.767H752.333V932.512Z" fill="#B7EFEA"/>
<path d="M752.333 948.467H736.629V952.721H752.333V948.467Z" fill="#B7EFEA"/>
<path d="M752.333 964.421H736.629V968.675H752.333V964.421Z" fill="#B7EFEA"/>
<path d="M752.333 980.375H736.629V984.629H752.333V980.375Z" fill="#B7EFEA"/>
<path d="M752.333 996.329H736.629V1000.58H752.333V996.329Z" fill="#B7EFEA"/>
<path d="M752.333 1012.28H736.629V1016.54H752.333V1012.28Z" fill="#B7EFEA"/>
<path d="M752.333 1028.24H736.629V1032.49H752.333V1028.24Z" fill="#B7EFEA"/>
<path d="M752.333 1044.19H736.629V1048.45H752.333V1044.19Z" fill="#B7EFEA"/>
<path d="M752.333 1060.15H736.629V1064.4H752.333V1060.15Z" fill="#B7EFEA"/>
<path d="M798.394 811.261H755.522V872.241H728.948V1080H825.677V811.261H798.394ZM755.522 1075.75H733.2V876.495H755.522V1075.75ZM794.143 1075.75H759.774V815.515H794.143V1075.75ZM821.425 1075.75H798.394V815.515H821.425V1075.75Z" fill="#B7EFEA"/>
<path d="M773.5 1060.15H765.797V1064.4H773.5V1060.15Z" fill="#B7EFEA"/>
<path d="M788.027 1060.15H780.324V1064.4H788.027V1060.15Z" fill="#B7EFEA"/>
<path d="M773.5 1044.19H765.797V1048.45H773.5V1044.19Z" fill="#B7EFEA"/>
<path d="M788.027 1044.19H780.324V1048.45H788.027V1044.19Z" fill="#B7EFEA"/>
<path d="M773.5 1028.24H765.797V1032.49H773.5V1028.24Z" fill="#B7EFEA"/>
<path d="M788.027 1028.24H780.324V1032.49H788.027V1028.24Z" fill="#B7EFEA"/>
<path d="M773.5 1012.28H765.797V1016.54H773.5V1012.28Z" fill="#B7EFEA"/>
<path d="M788.027 1012.28H780.324V1016.54H788.027V1012.28Z" fill="#B7EFEA"/>
<path d="M773.5 996.329H765.797V1000.58H773.5V996.329Z" fill="#B7EFEA"/>
<path d="M788.027 996.329H780.324V1000.58H788.027V996.329Z" fill="#B7EFEA"/>
<path d="M773.5 980.375H765.797V984.629H773.5V980.375Z" fill="#B7EFEA"/>
<path d="M788.027 980.375H780.324V984.629H788.027V980.375Z" fill="#B7EFEA"/>
<path d="M773.5 964.421H765.797V968.675H773.5V964.421Z" fill="#B7EFEA"/>
<path d="M788.027 964.421H780.324V968.675H788.027V964.421Z" fill="#B7EFEA"/>
<path d="M773.5 948.467H765.797V952.721H773.5V948.467Z" fill="#B7EFEA"/>
<path d="M788.027 948.467H780.324V952.721H788.027V948.467Z" fill="#B7EFEA"/>
<path d="M773.5 932.512H765.797V936.767H773.5V932.512Z" fill="#B7EFEA"/>
<path d="M788.027 932.512H780.324V936.767H788.027V932.512Z" fill="#B7EFEA"/>
<path d="M773.5 916.558H765.797V920.813H773.5V916.558Z" fill="#B7EFEA"/>
<path d="M788.027 916.558H780.324V920.813H788.027V916.558Z" fill="#B7EFEA"/>
<path d="M773.5 900.604H765.797V904.858H773.5V900.604Z" fill="#B7EFEA"/>
<path d="M788.027 900.604H780.324V904.858H788.027V900.604Z" fill="#B7EFEA"/>
<path d="M773.5 884.65H765.797V888.904H773.5V884.65Z" fill="#B7EFEA"/>
<path d="M788.027 884.65H780.324V888.904H788.027V884.65Z" fill="#B7EFEA"/>
<path d="M773.5 868.696H765.797V872.95H773.5V868.696Z" fill="#B7EFEA"/>
<path d="M788.027 868.696H780.324V872.95H788.027V868.696Z" fill="#B7EFEA"/>
<path d="M773.5 852.741H765.797V856.996H773.5V852.741Z" fill="#B7EFEA"/>
<path d="M788.027 852.741H780.324V856.996H788.027V852.741Z" fill="#B7EFEA"/>
<path d="M773.5 836.787H765.797V841.042H773.5V836.787Z" fill="#B7EFEA"/>
<path d="M788.027 836.787H780.324V841.042H788.027V836.787Z" fill="#B7EFEA"/>
<path d="M773.5 820.833H765.797V825.088H773.5V820.833Z" fill="#B7EFEA"/>
<path d="M788.027 820.833H780.324V825.088H788.027V820.833Z" fill="#B7EFEA"/>
<path d="M912.978 879.686H857.35V883.941H912.978V879.686Z" fill="#B7EFEA"/>
<path d="M912.982 899.735H837.724V903.99H912.982V899.735Z" fill="#B7EFEA"/>
<path d="M890.163 919.788H837.724V924.042H890.163V919.788Z" fill="#B7EFEA"/>
<path d="M912.982 939.837H837.724V944.092H912.982V939.837Z" fill="#B7EFEA"/>
<path d="M912.978 959.89H857.35V964.144H912.978V959.89Z" fill="#B7EFEA"/>
<path d="M912.982 979.942H837.724V984.197H912.982V979.942Z" fill="#B7EFEA"/>
<path d="M890.163 999.991H837.724V1004.25H890.163V999.991Z" fill="#B7EFEA"/>
<path d="M912.982 1020.04H837.724V1024.3H912.982V1020.04Z" fill="#B7EFEA"/>
<path d="M912.978 1040.09H857.35V1044.35H912.978V1040.09Z" fill="#B7EFEA"/>
<path d="M912.982 1060.15H837.724V1064.4H912.982V1060.15Z" fill="#B7EFEA"/>
<path d="M849.945 879.686H837.724V883.941H849.945V879.686Z" fill="#B7EFEA"/>
<path d="M912.978 919.749H897.569V924.003H912.978V919.749Z" fill="#B7EFEA"/>
<path d="M849.945 959.812H837.724V964.066H849.945V959.812Z" fill="#B7EFEA"/>
<path d="M912.978 999.875H897.569V1004.13H912.978V999.875Z" fill="#B7EFEA"/>
<path d="M849.945 1039.94H837.724V1044.19H849.945V1039.94Z" fill="#B7EFEA"/>
<path d="M858.983 824.024V861.25H821.425V1080H925.95V824.024H858.983ZM921.698 1075.75H825.677V865.505H863.235V828.278H921.698V1075.75Z" fill="#B7EFEA"/>
<path d="M912.982 848.767H871.509V853.022H912.982V848.767Z" fill="#B7EFEA"/>
<path d="M912.982 861.176H871.509V865.43H912.982V861.176Z" fill="#B7EFEA"/>
<path d="M912.982 836.713H871.509V840.967H912.982V836.713Z" fill="#B7EFEA"/>
<path d="M938.705 769.071H942.188V1054.83H938.705V1059.08H1010.04V1054.83H1006.21V769.071H1010.04V764.816H938.705V769.071ZM946.44 769.071H957.13V1054.83H946.44V769.071ZM972.072 1054.83H961.382V769.071H972.072V1054.83ZM976.323 769.071H987.013V1054.83H976.323V769.071ZM1001.95 1054.83H991.265V769.071H1001.95V1054.83Z" fill="#B7EFEA"/>
<path d="M977.326 717.663V743.189H921.698V1080H1028.7V717.663H977.326ZM1024.45 1075.75H925.95V747.444H981.578V721.917H1024.45V1075.75Z" fill="#B7EFEA"/>
<path d="M1019.07 730.426H986.705V734.68H1019.07V730.426Z" fill="#B7EFEA"/>
<path d="M1019.07 743.544H986.705V747.798H1019.07V743.544Z" fill="#B7EFEA"/>
<path d="M1024.45 839.978V1080H1122.24V839.978H1024.45ZM1028.7 853.096H1046.06V927.903H1028.7V853.096ZM1071.22 1024.34V1075.75H1050.32V1024.34H1071.22ZM1075.47 1024.34H1096.38V1075.75H1075.47V1024.34ZM1028.7 1020.08V1016.18H1117.99V1020.08H1028.7ZM1071.22 940.312V1011.93H1050.32V940.312H1071.22ZM1075.47 1011.93V940.312H1096.38V1011.93H1075.47ZM1028.7 936.058V932.158H1117.99V936.058H1028.7ZM1075.47 927.903V853.096H1096.38V927.903H1075.47ZM1071.22 927.903H1050.32V853.096H1071.22V927.903ZM1028.7 940.312H1046.06V1011.93H1028.7V940.312ZM1028.7 1024.34H1046.06V1075.75H1028.7V1024.34ZM1117.99 1075.75H1100.63V1024.34H1117.99V1075.75ZM1117.99 1011.93H1100.63V940.312H1117.99V1011.93ZM1117.99 927.903H1100.63V853.096H1117.99V927.903ZM1028.7 848.842V844.233H1117.99V848.842H1028.7Z" fill="#B7EFEA"/>
<path d="M1150.74 835.171L1128.6 818.514V1069.39H1150.74V835.171ZM1146.49 1065.13H1132.86V827.034L1146.49 837.294V1065.13Z" fill="#B7EFEA"/>
<path d="M1218.59 764.795H1173.42V769.049H1218.59V764.795Z" fill="#B7EFEA"/>
<path d="M1218.59 785.727H1173.42V789.981H1218.59V785.727Z" fill="#B7EFEA"/>
<path d="M1218.59 806.659H1173.42V810.913H1218.59V806.659Z" fill="#B7EFEA"/>
<path d="M1218.59 827.591H1173.42V831.845H1218.59V827.591Z" fill="#B7EFEA"/>
<path d="M1218.59 848.522H1173.42V852.777H1218.59V848.522Z" fill="#B7EFEA"/>
<path d="M1218.59 869.454H1173.42V873.709H1218.59V869.454Z" fill="#B7EFEA"/>
<path d="M1218.59 890.386H1173.42V894.641H1218.59V890.386Z" fill="#B7EFEA"/>
<path d="M1218.59 911.318H1173.42V915.573H1218.59V911.318Z" fill="#B7EFEA"/>
<path d="M1218.59 932.254H1173.42V936.508H1218.59V932.254Z" fill="#B7EFEA"/>
<path d="M1218.59 953.186H1173.42V957.44H1218.59V953.186Z" fill="#B7EFEA"/>
<path d="M1218.59 974.117H1173.42V978.372H1218.59V974.117Z" fill="#B7EFEA"/>
<path d="M1218.59 995.049H1173.42V999.304H1218.59V995.049Z" fill="#B7EFEA"/>
<path d="M1218.59 1015.98H1173.42V1020.24H1218.59V1015.98Z" fill="#B7EFEA"/>
<path d="M1218.59 1036.91H1173.42V1041.17H1218.59V1036.91Z" fill="#B7EFEA"/>
<path d="M1218.59 1057.84H1173.42V1062.1H1218.59V1057.84Z" fill="#B7EFEA"/>
<path d="M1234.67 759.771V747.508H1234.72V689.559H1213V644.015H1203.77V619.201H1199.51V644.015H1194.53V573.784H1190.28V743.257H1157.35V826.857L1117.99 797.246V1080H1269.29V786.815L1234.67 759.771ZM1157.1 1075.75H1122.24V805.765L1157.1 831.994V1075.75ZM1194.53 648.269H1208.74V689.559H1203.49V743.253H1194.53V648.269ZM1230.41 743.257V1075.75H1161.6V747.508H1207.74V693.813H1230.47V743.253H1230.41L1230.41 743.257ZM1265.03 1075.75H1234.72V765.213L1265.03 788.893V1075.75Z" fill="#B7EFEA"/>
<path d="M1258.67 791.995L1241.08 778.253V1069.38H1258.67V791.995ZM1254.42 1065.13H1245.33V786.971L1254.42 794.073V1065.13Z" fill="#B7EFEA"/>
<path d="M1265.03 845.874V1080H1335.54V770.414L1265.03 845.871V845.874ZM1331.29 914.254H1319.6V805.588H1319.1L1331.29 792.541V914.254ZM1269.29 918.508H1281.33V1002.36H1269.29V918.508ZM1285.58 918.508H1298.34V1002.36H1285.58V918.508ZM1298.34 1006.61V1075.75H1285.58V1006.61H1298.34ZM1302.59 1006.61H1315.35V1075.75H1302.59V1006.61ZM1302.59 1002.36V918.508H1315.35V1002.36H1302.59ZM1319.6 918.508H1331.29V1002.36H1319.6V918.508ZM1315.35 914.254H1302.59V823.255L1315.35 809.605V914.254ZM1298.34 914.254H1285.58V841.457L1298.34 827.807V914.254ZM1281.33 914.254H1269.29V858.9L1281.33 846.009V914.257V914.254ZM1269.29 1006.61H1281.33V1075.75H1269.29V1006.61ZM1319.6 1075.75V1006.61H1331.29V1075.75H1319.6ZM1269.29 852.671V847.555L1331.29 781.196V786.312L1269.29 852.671Z" fill="#B7EFEA"/>
<path d="M1382.17 873.659H1345.82V877.914H1382.17V873.659Z" fill="#B7EFEA"/>
<path d="M1366.37 889.316H1345.82V893.57H1366.37V889.316Z" fill="#B7EFEA"/>
<path d="M1382.17 904.975H1345.82V909.23H1382.17V904.975Z" fill="#B7EFEA"/>
<path d="M1366.37 920.635H1345.82V924.89H1366.37V920.635Z" fill="#B7EFEA"/>
<path d="M1382.17 936.292H1345.82V940.546H1382.17V936.292Z" fill="#B7EFEA"/>
<path d="M1366.37 952.012H1345.82V956.266H1366.37V952.012Z" fill="#B7EFEA"/>
<path d="M1382.17 967.612H1345.82V971.866H1382.17V967.612Z" fill="#B7EFEA"/>
<path d="M1366.37 983.268H1345.82V987.522H1366.37V983.268Z" fill="#B7EFEA"/>
<path d="M1382.17 998.928H1345.82V1003.18H1382.17V998.928Z" fill="#B7EFEA"/>
<path d="M1366.37 1014.59H1345.82V1018.84H1366.37V1014.59Z" fill="#B7EFEA"/>
<path d="M1382.17 1030.24H1345.82V1034.5H1382.17V1030.24Z" fill="#B7EFEA"/>
<path d="M1366.37 1045.9H1345.82V1050.16H1366.37V1045.9Z" fill="#B7EFEA"/>
<path d="M1382.17 1061.56H1345.82V1065.82H1382.17V1061.56Z" fill="#B7EFEA"/>
<path d="M1382.17 889.316H1373.18V893.57H1382.17V889.316Z" fill="#B7EFEA"/>
<path d="M1382.17 920.515H1373.18V924.769H1382.17V920.515Z" fill="#B7EFEA"/>
<path d="M1382.17 952.012H1373.18V956.266H1382.17V952.012Z" fill="#B7EFEA"/>
<path d="M1382.17 983.211H1373.18V987.466H1382.17V983.211Z" fill="#B7EFEA"/>
<path d="M1382.17 1014.77H1373.18V1019.02H1382.17V1014.77Z" fill="#B7EFEA"/>
<path d="M1382.17 1045.96H1373.18V1050.22H1382.17V1045.96Z" fill="#B7EFEA"/>
<path d="M1392.59 829.697V859.123H1331.29V1080H1430.15V829.697H1392.59ZM1392.59 1075.75H1335.54V863.378H1392.59V1075.75ZM1425.9 1075.75H1396.84V833.951H1425.9V1075.75Z" fill="#B7EFEA"/>
<path d="M1418.81 842.105H1403.93V1067.59H1418.81V842.105ZM1414.56 1063.34H1408.18V846.36H1414.56V1063.34Z" fill="#B7EFEA"/>
<path d="M1456.19 1063.34H1437.23V1067.59H1456.19V1063.34Z" fill="#B7EFEA"/>
<path d="M1456.19 1050.93H1437.23V1055.18H1456.19V1050.93Z" fill="#B7EFEA"/>
<path d="M1456.19 1038.52H1437.23V1042.77H1456.19V1038.52Z" fill="#B7EFEA"/>
<path d="M1456.19 1026.11H1437.23V1030.36H1456.19V1026.11Z" fill="#B7EFEA"/>
<path d="M1456.19 1013.7H1437.23V1017.96H1456.19V1013.7Z" fill="#B7EFEA"/>
<path d="M1484.36 1067.59H1519.08V906.277H1484.36V1067.59ZM1498.77 1063.34V910.531H1504.67V1063.34H1498.77ZM1514.83 1063.34H1508.92V910.531H1514.83V1063.34ZM1488.61 910.531H1494.52V1063.34H1488.61V910.531Z" fill="#B7EFEA"/>
<path d="M1529 1007.67V892.804H1516.96V868.341H1510.58V842.141H1506.33V868.341H1503.85V859.832H1499.59V868.341H1486.48V892.804H1474.44V924.358H1463.45V955.912H1444.67V998.811H1425.9V1080H1545.3V1007.67H1529ZM1490.74 872.596H1512.7V892.804H1510.58V877.559H1506.33V892.804H1503.85V877.559H1499.59V892.804H1497.11V877.559H1492.86V892.804H1490.74V872.596ZM1463.45 1075.75H1430.15V1003.07H1448.93V960.166H1463.45V1075.75ZM1474.44 1075.75H1467.71V928.613H1474.44V1075.75ZM1524.75 1075.75H1478.69V897.059H1524.75V1075.75ZM1541.05 1075.75H1529V1011.93H1541.05V1075.75Z" fill="#B7EFEA"/>
<path d="M1612.98 911.24V897.059H1554.87V911.24H1541.05V1080H1627.15V911.24H1612.98ZM1559.13 901.313H1608.73V911.24H1559.13V901.313ZM1554.87 915.495H1622.9V917.321H1545.3V915.495H1554.87ZM1545.3 1075.75V921.575H1571.88V1075.75H1545.3ZM1576.13 1075.75V921.575H1592.07V1075.75H1576.13ZM1596.32 1075.75V921.575H1622.9V1075.75H1596.32Z" fill="#B7EFEA"/>
<path d="M1567.98 924.358H1550.09V928.613H1567.98V924.358Z" fill="#B7EFEA"/>
<path d="M1567.98 935.703H1550.09V939.958H1567.98V935.703Z" fill="#B7EFEA"/>
<path d="M1567.98 947.048H1550.09V951.303H1567.98V947.048Z" fill="#B7EFEA"/>
<path d="M1567.98 958.394H1550.09V962.648H1567.98V958.394Z" fill="#B7EFEA"/>
<path d="M1567.98 969.739H1550.09V973.993H1567.98V969.739Z" fill="#B7EFEA"/>
<path d="M1567.98 981.084H1550.09V985.339H1567.98V981.084Z" fill="#B7EFEA"/>
<path d="M1567.98 992.429H1550.09V996.684H1567.98V992.429Z" fill="#B7EFEA"/>
<path d="M1567.98 1003.77H1550.09V1008.03H1567.98V1003.77Z" fill="#B7EFEA"/>
<path d="M1567.98 1015.12H1550.09V1019.37H1567.98V1015.12Z" fill="#B7EFEA"/>
<path d="M1567.98 1026.46H1550.09V1030.72H1567.98V1026.46Z" fill="#B7EFEA"/>
<path d="M1567.98 1037.81H1550.09V1042.06H1567.98V1037.81Z" fill="#B7EFEA"/>
<path d="M1567.98 1049.16H1550.09V1053.41H1567.98V1049.16Z" fill="#B7EFEA"/>
<path d="M1567.98 1060.5H1550.09V1064.75H1567.98V1060.5Z" fill="#B7EFEA"/>
<path d="M1618.65 924.358H1600.76V928.613H1618.65V924.358Z" fill="#B7EFEA"/>
<path d="M1618.65 935.703H1600.76V939.958H1618.65V935.703Z" fill="#B7EFEA"/>
<path d="M1618.65 947.048H1600.76V951.303H1618.65V947.048Z" fill="#B7EFEA"/>
<path d="M1618.65 958.394H1600.76V962.648H1618.65V958.394Z" fill="#B7EFEA"/>
<path d="M1618.65 969.739H1600.76V973.993H1618.65V969.739Z" fill="#B7EFEA"/>
<path d="M1618.65 981.084H1600.76V985.339H1618.65V981.084Z" fill="#B7EFEA"/>
<path d="M1618.65 992.429H1600.76V996.684H1618.65V992.429Z" fill="#B7EFEA"/>
<path d="M1618.65 1003.77H1600.76V1008.03H1618.65V1003.77Z" fill="#B7EFEA"/>
<path d="M1618.65 1015.12H1600.76V1019.37H1618.65V1015.12Z" fill="#B7EFEA"/>
<path d="M1618.65 1026.46H1600.76V1030.72H1618.65V1026.46Z" fill="#B7EFEA"/>
<path d="M1618.65 1037.81H1600.76V1042.06H1618.65V1037.81Z" fill="#B7EFEA"/>
<path d="M1618.65 1049.16H1600.76V1053.41H1618.65V1049.16Z" fill="#B7EFEA"/>
<path d="M1618.65 1060.5H1600.76V1064.75H1618.65V1060.5Z" fill="#B7EFEA"/>
<path d="M1587.43 904.149H1566.16V908.404H1587.43V904.149Z" fill="#B7EFEA"/>
<path d="M1601.7 904.149H1591.36V908.404H1601.7V904.149Z" fill="#B7EFEA"/>
<path d="M1637.07 1014.41H1632.82V1069.36H1637.07V1014.41Z" fill="#B7EFEA"/>
<path d="M1649.12 1014.41H1644.86V1069.36H1649.12V1014.41Z" fill="#B7EFEA"/>
<path d="M1718.56 1003.77V1020.08H1711.83V890.649L1688.8 861.353L1665.77 890.649V1020.08H1659.04V1003.77H1622.9V1080H1754.7V1003.77H1718.56ZM1654.79 1075.75H1627.15V1008.03H1654.79V1075.75ZM1718.56 1075.75H1659.04V1024.34H1670.02V892.124L1688.8 868.238L1707.58 892.124V1024.34H1718.56V1075.75ZM1750.45 1075.75H1722.82V1008.03H1750.45V1075.75Z" fill="#B7EFEA"/>
<path d="M1732.74 1014.41H1728.48V1069.36H1732.74V1014.41Z" fill="#B7EFEA"/>
<path d="M1744.78 1014.41H1740.53V1069.36H1744.78V1014.41Z" fill="#B7EFEA"/>
<path d="M1683.49 896.704H1676.4V1071.49H1701.2V896.704H1683.49ZM1680.65 1067.24V900.959H1683.49V1067.24H1680.65ZM1687.74 1067.24V900.959H1689.86V1067.24H1687.74ZM1696.95 900.959V1067.24H1694.12V900.959H1696.95Z" fill="#B7EFEA"/>
<path d="M1801.83 969.384V950.771H1766.04V969.384H1750.28V1080H1874.11V969.384H1801.83ZM1770.29 955.026H1797.58V969.207H1770.29V955.026ZM1869.86 973.639V978.205H1754.53V973.639H1869.86ZM1754.53 1075.75V982.46H1869.86V1075.75H1754.53Z" fill="#B7EFEA"/>
<path d="M1856.2 988.352H1768.09V992.607H1856.2V988.352Z" fill="#B7EFEA"/>
<path d="M1793.32 1006.34H1768.09V1010.6H1793.32V1006.34Z" fill="#B7EFEA"/>
<path d="M1856.2 1024.34H1768.09V1028.59H1856.2V1024.34Z" fill="#B7EFEA"/>
<path d="M1793.32 1042.33H1768.09V1046.58H1793.32V1042.33Z" fill="#B7EFEA"/>
<path d="M1824.86 1006.34H1799.63V1010.6H1824.86V1006.34Z" fill="#B7EFEA"/>
<path d="M1824.86 1042.33H1799.63V1046.58H1824.86V1042.33Z" fill="#B7EFEA"/>
<path d="M1856.04 1006.34H1830.81V1010.6H1856.04V1006.34Z" fill="#B7EFEA"/>
<path d="M1856.04 1042.33H1830.81V1046.58H1856.04V1042.33Z" fill="#B7EFEA"/>
<path d="M1856.2 1060.32H1768.09V1064.58H1856.2V1060.32Z" fill="#B7EFEA"/>
<path d="M1842.97 848.455H1798.32C1792.85 848.455 1788.4 844.002 1788.4 838.528C1788.4 833.054 1792.85 828.601 1798.32 828.601H1798.34C1798.71 822.088 1804.12 816.901 1810.72 816.901C1813.33 816.901 1815.83 817.713 1817.91 819.195C1820.13 815.611 1824.06 813.356 1828.44 813.356C1834.62 813.356 1839.77 817.912 1840.69 823.847C1841.43 823.708 1842.19 823.638 1842.97 823.638C1849.8 823.638 1855.37 829.204 1855.37 836.046C1855.37 842.889 1849.8 848.455 1842.97 848.455ZM1798.32 832.856C1795.2 832.856 1792.65 835.401 1792.65 838.528C1792.65 841.655 1795.2 844.201 1798.32 844.201H1842.97C1847.46 844.201 1851.11 840.542 1851.11 836.046C1851.11 831.551 1847.46 827.892 1842.97 827.892C1841.78 827.892 1840.63 828.144 1839.56 828.64C1838.87 828.959 1838.07 828.885 1837.45 828.445C1836.83 828.005 1836.48 827.272 1836.56 826.513C1836.58 826.247 1836.59 826.002 1836.59 825.765C1836.59 821.269 1832.93 817.61 1828.44 817.61C1824.84 817.61 1821.71 819.922 1820.65 823.357C1820.42 824.102 1819.8 824.662 1819.04 824.818C1818.28 824.974 1817.49 824.694 1816.99 824.095C1815.43 822.226 1813.15 821.156 1810.73 821.156C1806.24 821.156 1802.58 824.815 1802.58 829.31C1802.58 829.399 1802.57 829.487 1802.56 829.572L1802.36 831.228C1802.28 831.834 1801.95 832.377 1801.45 832.721C1800.94 833.065 1800.32 833.175 1799.72 833.026C1799.27 832.909 1798.8 832.852 1798.33 832.852L1798.32 832.856Z" fill="#B7EFEA"/>
<path d="M1422.64 704.868H1366.5C1361.2 704.868 1356.9 700.553 1356.9 695.253C1356.9 690.718 1359.99 686.924 1364.23 685.907C1365.13 679.731 1370.45 674.977 1376.87 674.977C1378.35 674.977 1379.8 675.228 1381.17 675.721C1382.73 668.878 1388.88 663.741 1396.15 663.741C1403.43 663.741 1409.15 668.457 1410.96 675.015C1411.3 674.987 1411.64 674.973 1411.99 674.973C1418.38 674.973 1423.69 679.695 1424.62 685.836C1428.97 686.751 1432.25 690.626 1432.25 695.245C1432.25 700.549 1427.94 704.86 1422.64 704.86V704.868ZM1376.87 679.231C1372.17 679.231 1368.34 683.056 1368.34 687.761C1368.34 688.906 1367.44 689.849 1366.3 689.895C1363.41 690.005 1361.15 692.359 1361.15 695.253C1361.15 698.146 1363.55 700.613 1366.5 700.613H1422.64C1425.6 700.613 1428 698.206 1428 695.253C1428 692.299 1425.59 689.892 1422.64 689.892C1421.47 689.892 1420.52 688.938 1420.52 687.765C1420.52 683.06 1416.69 679.235 1411.99 679.235C1411.26 679.235 1410.53 679.327 1409.83 679.511C1409.24 679.667 1408.61 679.557 1408.1 679.213C1407.59 678.869 1407.26 678.323 1407.18 677.717C1406.49 672.176 1401.75 667.999 1396.16 667.999C1390.09 667.999 1385.1 672.941 1385.04 679.015C1385.04 679.802 1384.59 680.521 1383.89 680.883C1383.2 681.245 1382.35 681.192 1381.71 680.745C1380.28 679.759 1378.61 679.235 1376.87 679.235V679.231Z" fill="#B7EFEA"/>
<path d="M772.919 780.029H749.534C742.111 780.029 736.07 773.985 736.07 766.557C736.07 759.129 742.111 753.085 749.534 753.085C753.881 753.085 757.875 755.148 760.387 758.583C761.329 758.229 762.328 758.048 763.352 758.048C766.8 758.048 769.84 760.168 771.155 763.2C771.732 763.075 772.324 763.012 772.919 763.012C777.607 763.012 781.423 766.83 781.423 771.521C781.423 776.211 777.607 780.029 772.919 780.029ZM749.534 757.339C744.453 757.339 740.322 761.473 740.322 766.557C740.322 771.641 744.453 775.775 749.534 775.775H772.919C775.265 775.775 777.171 773.868 777.171 771.521C777.171 769.174 775.265 767.266 772.919 767.266C772.171 767.266 771.431 767.468 770.779 767.851C770.148 768.22 769.372 768.241 768.724 767.904C768.076 767.567 767.647 766.922 767.583 766.195C767.399 764.011 765.542 762.303 763.352 762.303C762.46 762.303 761.602 762.583 760.869 763.111C760.366 763.473 759.731 763.6 759.129 763.455C758.527 763.309 758.016 762.909 757.733 762.356C756.146 759.261 753.003 757.339 749.534 757.339Z" fill="#B7EFEA"/>
<path d="M137.708 833.565H100.484C94.7684 833.565 90.1162 828.913 90.1162 823.191C90.1162 817.469 94.6232 812.962 100.218 812.821C101.245 805.911 107.216 800.589 114.405 800.589C121.594 800.589 127.575 805.918 128.595 812.835C128.79 812.821 128.985 812.814 129.18 812.814C132.362 812.814 135.182 814.696 136.49 817.454C136.89 817.394 137.294 817.362 137.705 817.362C142.166 817.362 145.798 820.996 145.798 825.46C145.798 829.924 142.166 833.558 137.705 833.558L137.708 833.565ZM100.484 817.075C97.1105 817.075 94.3681 819.819 94.3681 823.194C94.3681 826.57 97.1105 829.314 100.484 829.314H137.708C139.827 829.314 141.549 827.591 141.549 825.471C141.549 823.35 139.827 821.627 137.708 821.627C137.127 821.627 136.56 821.762 136.018 822.024C135.405 822.322 134.686 822.312 134.084 821.989C133.481 821.666 133.07 821.074 132.978 820.401C132.723 818.507 131.09 817.082 129.18 817.082C128.61 817.082 128.053 817.21 127.525 817.462C126.852 817.784 126.058 817.727 125.435 817.316C124.811 816.905 124.45 816.196 124.485 815.448C124.492 815.285 124.496 815.122 124.496 814.951C124.496 809.382 119.968 804.851 114.401 804.851C108.835 804.851 104.31 809.382 104.31 814.951V815.026C104.346 815.685 104.073 816.32 103.57 816.749C103.067 817.178 102.397 817.348 101.752 817.213C101.33 817.125 100.902 817.079 100.48 817.079L100.484 817.075Z" fill="#B7EFEA"/>
<path d="M468.696 727.565H426.738C423.032 727.565 420.016 724.548 420.016 720.839C420.016 717.131 422.886 714.263 426.465 714.121C426.77 708.998 431.036 704.921 436.23 704.921C436.471 704.921 436.712 704.931 436.953 704.949C438.629 697.38 445.435 691.746 453.379 691.746C462.496 691.746 469.944 699.042 470.199 708.104C474.879 708.831 478.476 712.891 478.476 717.776C478.476 723.172 474.086 727.565 468.693 727.565H468.696ZM426.738 718.372C425.377 718.372 424.268 719.478 424.268 720.843C424.268 722.208 425.374 723.314 426.738 723.314H468.696C471.747 723.314 474.227 720.832 474.227 717.78C474.227 714.727 471.747 712.245 468.696 712.245C468.537 712.245 468.374 712.253 468.193 712.27C467.559 712.327 466.932 712.097 466.485 711.643C466.039 711.189 465.819 710.558 465.887 709.927C465.933 709.477 465.957 709.026 465.957 708.587C465.957 701.648 460.317 696.004 453.383 696.004C446.842 696.004 441.336 701.113 440.847 707.633C440.797 708.292 440.446 708.888 439.894 709.25C439.345 709.611 438.654 709.7 438.034 709.484C437.452 709.282 436.843 709.182 436.23 709.182C433.179 709.182 430.699 711.664 430.699 714.717C430.699 715.216 430.766 715.716 430.901 716.202C431.128 717.018 430.848 717.89 430.189 718.425C429.53 718.957 428.619 719.049 427.868 718.659C427.514 718.475 427.131 718.379 426.734 718.379L426.738 718.372Z" fill="#B7EFEA"/>
<path d="M697.679 512.584H649.095C642.738 512.584 637.565 507.408 637.565 501.047C637.565 494.687 642.335 489.922 648.347 489.536C649.389 480.704 656.918 473.83 666.021 473.83C674.61 473.83 681.816 479.977 683.464 488.103C684.789 487.586 686.21 487.316 687.649 487.316C692.187 487.316 696.191 489.908 698.073 493.911C703.04 494.116 707.016 498.225 707.016 503.242C707.016 508.259 702.828 512.584 697.679 512.584ZM649.095 493.765C645.081 493.765 641.817 497.031 641.817 501.047C641.817 505.064 645.081 508.33 649.095 508.33H697.679C700.482 508.33 702.764 506.046 702.764 503.242C702.764 500.197 700.085 497.757 696.949 498.208C695.911 498.356 694.919 497.725 694.614 496.722C693.676 493.638 690.876 491.567 687.652 491.567C685.951 491.567 684.357 492.138 683.042 493.216C682.408 493.737 681.529 493.843 680.789 493.496C680.048 493.145 679.574 492.4 679.57 491.581C679.538 484.14 673.465 478.084 666.024 478.084C658.584 478.084 652.486 484.157 652.479 491.624V491.712C652.486 492.329 652.22 492.914 651.759 493.322C651.299 493.73 650.682 493.914 650.073 493.833C649.74 493.787 649.41 493.765 649.099 493.765H649.095Z" fill="#B7EFEA"/>
<path d="M960 553.48C948.081 553.48 938.386 543.78 938.386 531.853C938.386 519.927 948.081 510.226 960 510.226C971.919 510.226 981.614 519.927 981.614 531.853C981.614 543.78 971.919 553.48 960 553.48ZM960 514.481C950.426 514.481 942.638 522.274 942.638 531.853C942.638 541.433 950.426 549.226 960 549.226C969.574 549.226 977.362 541.433 977.362 531.853C977.362 522.274 969.574 514.481 960 514.481Z" fill="#B7EFEA"/>
<path d="M962.126 473H957.874V504.561H962.126V473Z" fill="#B7EFEA"/>
<path d="M951.34 491.299L947.233 492.4L950.907 506.119L955.014 505.017L951.34 491.299Z" fill="#B7EFEA"/>
<path d="M932.432 479.821L928.75 481.948L944.521 509.281L948.203 507.153L932.432 479.821Z" fill="#B7EFEA"/>
<path d="M932.191 501.019L929.184 504.028L939.211 514.06L942.217 511.052L932.191 501.019Z" fill="#B7EFEA"/>
<path d="M910.125 500.586L907.999 504.27L935.315 520.051L937.441 516.366L910.125 500.586Z" fill="#B7EFEA"/>
<path d="M920.431 519.036L919.331 523.146L933.041 526.822L934.142 522.712L920.431 519.036Z" fill="#B7EFEA"/>
<path d="M932.724 529.726H901.183V533.98H932.724V529.726Z" fill="#B7EFEA"/>
<path d="M933.12 536.919L919.409 540.595L920.51 544.704L934.22 541.028L933.12 536.919Z" fill="#B7EFEA"/>
<path d="M935.312 543.644L907.996 559.424L910.122 563.109L937.438 547.328L935.312 543.644Z" fill="#B7EFEA"/>
<path d="M939.21 549.646L929.183 559.679L932.19 562.688L942.216 552.655L939.21 549.646Z" fill="#B7EFEA"/>
<path d="M944.53 554.433L928.759 581.766L932.441 583.893L948.212 556.56L944.53 554.433Z" fill="#B7EFEA"/>
<path d="M950.835 557.64L947.161 571.359L951.268 572.46L954.942 558.741L950.835 557.64Z" fill="#B7EFEA"/>
<path d="M962.126 559.146H957.874V590.706H962.126V559.146Z" fill="#B7EFEA"/>
<path d="M969.126 557.735L965.02 558.836L968.693 572.555L972.8 571.454L969.126 557.735Z" fill="#B7EFEA"/>
<path d="M975.48 554.429L971.798 556.557L987.569 583.889L991.251 581.762L975.48 554.429Z" fill="#B7EFEA"/>
<path d="M980.801 549.662L977.795 552.67L987.821 562.703L990.828 559.695L980.801 549.662Z" fill="#B7EFEA"/>
<path d="M984.682 543.657L982.556 547.341L1009.87 563.122L1012 559.437L984.682 543.657Z" fill="#B7EFEA"/>
<path d="M986.827 536.838L985.727 540.947L999.437 544.623L1000.54 540.514L986.827 536.838Z" fill="#B7EFEA"/>
<path d="M1018.82 529.726H987.275V533.98H1018.82V529.726Z" fill="#B7EFEA"/>
<path d="M999.495 519.018L985.786 522.696L986.887 526.805L1000.6 523.127L999.495 519.018Z" fill="#B7EFEA"/>
<path d="M1009.87 500.577L982.552 516.357L984.678 520.041L1011.99 504.261L1009.87 500.577Z" fill="#B7EFEA"/>
<path d="M987.769 500.974L977.742 511.007L980.749 514.016L990.776 503.983L987.769 500.974Z" fill="#B7EFEA"/>
<path d="M987.578 479.83L971.807 507.163L975.49 509.29L991.26 481.957L987.578 479.83Z" fill="#B7EFEA"/>
<path d="M968.65 491.213L964.976 504.932L969.083 506.033L972.757 492.314L968.65 491.213Z" fill="#B7EFEA"/>
<path d="M1922 1075.75H-2V1080H1922V1075.75Z" fill="#B7EFEA"/>
</g>
</g>
<defs>
<clipPath id="clip0_987_4368">
<rect width="1924" height="607" fill="white" transform="translate(-2 473)"/>
</clipPath>
</defs>
</svg>
